<svg xmlns="http://www.w3.org/2000/svg" viewBox="0 0 64 64">
    <rect x="39.999" y="53" width="8" height="10" rx="1" style="fill:#788d64"/>
    <path d="M61.859 49.49 53.741 35.8h3.911a1 1 0 0 0 .836-1.549l-13.654-20.8a1.039 1.039 0 0 0-1.671 0l-13.654 20.8a1 1 0 0 0 .836 1.549h3.911l-8.118 13.69A1 1 0 0 0 27 51h34a1 1 0 0 0 .859-1.51z"
          style="fill:#788d64"/>
    <path d="M43.834 47.427 42.7 45.721a35.906 35.906 0 0 1-2.608-4.906A10.029 10.029 0 0 0 31 34.981h-7V31.93a16.007 16.007 0 0 0 15-15.949 1 1 0 0 0-1-1 15.9 15.9 0 0 0-8.772 2.635 24.757 24.757 0 0 0-5.447-16.26 1.033 1.033 0 0 0-1.561 0 24.757 24.757 0 0 0-5.447 16.26A15.9 15.9 0 0 0 8 14.981a1 1 0 0 0-1 1A16.007 16.007 0 0 0 22 31.93v3.051h-7a10.032 10.032 0 0 0-9.092 5.834A35.831 35.831 0 0 1 3.3 45.721l-1.132 1.706A1 1 0 0 0 3 48.981h40a1 1 0 0 0 .834-1.554zm-6.871-30.408a14.023 14.023 0 0 1-12.924 12.924 14.023 14.023 0 0 1 12.924-12.924zm-27.924 0a14.023 14.023 0 0 1 12.924 12.924A14.023 14.023 0 0 1 9.039 17.019zm9.855 2.281A22.808 22.808 0 0 1 23 3.639 22.808 22.808 0 0 1 27.109 19.3 16.026 16.026 0 0 0 23 25.466a16.013 16.013 0 0 0-4.106-6.166zM4.866 46.981a32.414 32.414 0 0 0 2.861-5.332A8.026 8.026 0 0 1 15 36.981h16a8.022 8.022 0 0 1 7.274 4.668 31.859 31.859 0 0 0 2.862 5.332z"
          style="fill:#fafad2"/>
    <path d="M34 41.981H12a1 1 0 1 0 0 2h22a1 1 0 0 0 0-2z" style="fill:#fafad2"/>
</svg>
